Coordinates
version=1
nRows=6
nColumns=36
inDegrees=yes

Units are S.I. units (second, meters, Newtons, ...)
If the header above contains a line with 'inDegrees', this indicates whether rotational values are in degrees (yes) or radians (no).

endheader
time	pelvis_tilt	pelvis_list	pelvis_rotation	pelvis_tx	pelvis_ty	pelvis_tz	hip_flexion_r	hip_adduction_r	hip_rotation_r	knee_angle_r	knee_angle_r_beta	ankle_angle_r	subtalar_angle_r	mtp_angle_r	hip_flexion_l	hip_adduction_l	hip_rotation_l	knee_angle_l	knee_angle_l_beta	ankle_angle_l	subtalar_angle_l	mtp_angle_l	lumbar_extension	lumbar_bending	lumbar_rotation	arm_flex_r	arm_add_r	arm_rot_r	elbow_flex_r	pro_sup_r	arm_flex_l	arm_add_l	arm_rot_l	elbow_flex_l	pro_sup_l
     45.36666670	     -9.22094587	     -2.33690053	     -0.51140081	      0.86731981	      0.78360678	      0.70543577	     31.14007009	      3.85181985	      2.39995261	      7.45310462	      0.13008122	      2.05036258	     -5.70565137	     -7.49999987	     -3.54673789	     -0.73300110	     -1.66316921	     19.99277858	      0.34893981	     16.11088779	      2.18789754	     -7.49999987	     15.39286699	      2.93665708	     -8.63614641	     -5.13338978	    -13.48450103	      2.72124936	      6.91023982	     99.93228253	      2.61381088	    -10.92034521	      7.22224712	     12.03573621	     93.78299533
     45.38333330	     -8.89778494	     -2.97960712	     -0.84214532	      0.86814534	      0.78550609	      0.70591221	     30.59101865	      4.83395484	      2.38377706	      9.43011042	      0.16458648	      1.62225993	     -6.24393855	     -7.49999987	     -3.79426996	     -1.62672222	     -2.27349189	     22.05777381	      0.38498078	     13.68214958	      1.89114674	     -7.49999987	     15.05204936	      3.89389086	     -8.33790322	     -4.55453733	    -13.97185355	      2.73662353	      6.91294158	     99.95108989	      2.21962308	    -10.34600585	      7.28608120	     11.82616401	     93.81017575
     45.40000000	     -8.17923693	     -3.59135487	     -1.14655702	      0.86879405	      0.78871718	      0.70809726	     29.46458929	      5.80695921	      2.97395378	     10.92842642	      0.19073702	      1.09065505	     -7.76372327	     -7.49999987	     -4.15686246	     -2.37832883	     -2.39850768	     24.39211401	      0.42572270	     10.72640090	      0.43074302	     -7.49999987	     14.09112170	      4.85566158	     -8.10360751	     -3.53589132	    -14.44939130	      3.08595073	      6.84379952	    100.12515880	      1.96153085	     -9.84973998	      7.41435858	     11.49855148	     93.89669566
     45.41666670	     -7.74421662	     -4.14513537	     -1.40345557	      0.86891640	      0.79191010	      0.71107849	     28.51987528	      6.68362562	      3.22679123	     12.12384374	      0.21160099	      1.26057497	     -8.39807725	     -7.49999987	     -3.59303175	     -3.24576683	     -2.89368791	     27.58675999	      0.48147979	      7.51534709	     -0.04767794	     -7.49999987	     13.48199481	      5.68463598	     -7.66068837	     -2.82469776	    -14.86027204	      3.28048704	      7.05325139	    100.19402523	      1.67281715	     -9.44572485	      7.52360831	     11.36918547	     93.95416463
     45.43333330	     -7.27499311	     -4.63631108	     -1.50888542	      0.86901182	      0.79439853	      0.71376089	     27.41858006	      7.46308585	      3.47506842	     13.06136323	      0.22796379	      1.70927982	     -9.11273311	     -7.49999987	     -2.36662882	     -4.16470577	     -3.22759858	     31.70771474	      0.55340402	      3.32086181	     -0.78953543	     -7.49999987	     12.76691419	      6.40954577	     -7.24959741	     -2.12731584	    -15.17280542	      3.51637324	      7.37011448	    100.24719321	      1.49386817	     -9.14925300	      7.65021273	     11.23557659	     94.02022415
     45.45000000	     -7.17593950	     -5.07874803	     -1.51197481	      0.86998699	      0.79456775	      0.71638681	     26.64153959	      8.16495026	      3.48066843	     13.82565533	      0.24130321	      2.47946713	     -9.39901484	     -7.49999987	     -0.20644280	     -5.16780479	     -3.44906982	     36.55155861	      0.63794504	     -1.65445872	     -1.49085342	     -7.49999987	     12.56660018	      6.97242166	     -6.81364701	     -1.79127977	    -15.36335597	      3.73949707	      7.71549389	     98.67403966	      1.20364743	     -8.87049275	      7.67856463	     11.28577448	     92.34792561
